<svg xmlns="http://www.w3.org/2000/svg" xmlns:xlink="http://www.w3.org/1999/xlink" width="50" height="50" viewBox="0 0 50 50"><defs><clipPath id="b"><rect width="50" height="50"/></clipPath></defs><g id="a" clip-path="url(#b)"><g transform="translate(-59.688 -34.177)"><g transform="translate(59.685 34.177)"><g transform="translate(16.65 16.654)"><path d="M185.27,189.588a3.6,3.6,0,1,1,3.6-3.6A3.6,3.6,0,0,1,185.27,189.588Zm0-5.618a2.022,2.022,0,1,0,2.022,2.022A2.025,2.025,0,0,0,185.27,183.97Z" transform="translate(-181.674 -182.397)" fill="#049507"/></g><g transform="translate(0.341)"><path d="M68.294,83.678a.787.787,0,0,1-.556-1.343L83.707,66.367,81.353,65.2l-6.5,1.787a.787.787,0,0,1-.791-.23L64.581,56.307a.786.786,0,0,1,.19-1.21l19.3-11.142-3.442-3.184L54.716,46.707a.786.786,0,0,1-.706-.186L42.226,35.761l-4.9.174a.786.786,0,1,1-.056-1.572l5.217-.185a.786.786,0,0,1,.558.205l11.717,10.7,25.919-5.937a.786.786,0,0,1,.71.189l4.531,4.191a.787.787,0,0,1-.141,1.259L66.4,55.973l8.5,9.373,6.326-1.738a.787.787,0,0,1,.557.053l3.6,1.781a.787.787,0,0,1,.208,1.261L68.851,83.448A.784.784,0,0,1,68.294,83.678Z" transform="translate(-36.516 -34.177)" fill="#049507"/></g><g transform="translate(0 0.185)"><path d="M43.559,85.487a.787.787,0,0,1-.577-.252l-4.191-4.523A.786.786,0,0,1,38.6,80l5.935-25.912L33.7,42.528a.787.787,0,0,1-.211-.588l.341-5.38a.786.786,0,0,1,1.57.1l-.319,5.04L45.97,53.318a.787.787,0,0,1,.193.714L40.227,79.947l3.184,3.436,11.143-19.3a.786.786,0,0,1,1.209-.189l10.454,9.478a.787.787,0,0,1,.23.791l-1.787,6.5,1.649,3.336a.786.786,0,1,1-1.41.7l-1.781-3.6a.787.787,0,0,1-.053-.557L64.8,74.215l-9.373-8.5L44.24,85.093a.786.786,0,0,1-.593.388A.747.747,0,0,1,43.559,85.487Z" transform="translate(-33.484 -35.824)" fill="#049507"/></g><g transform="translate(34.555 11.518)"><path d="M347.373,143.822a.784.784,0,0,1-.556-.23l-5.561-5.562a.787.787,0,0,1,1.112-1.112l5.561,5.562a.787.787,0,0,1-.556,1.343Z" transform="translate(-341.025 -136.687)" fill="#049507"/></g><g transform="translate(39.322 11.518)"><path d="M388.211,142.232a.784.784,0,0,1-.556-.23l-3.972-3.973a.787.787,0,1,1,1.112-1.112l3.972,3.973a.786.786,0,0,1-.556,1.343Z" transform="translate(-383.452 -136.687)" fill="#049507"/></g><g transform="translate(11.514 34.558)"><path d="M142.311,348.884a.784.784,0,0,1-.556-.23l-5.562-5.562a.787.787,0,0,1,1.112-1.112l5.562,5.562a.787.787,0,0,1-.556,1.343Z" transform="translate(-135.962 -341.749)" fill="#049507"/></g><g transform="translate(11.514 39.325)"><path d="M140.722,389.721a.784.784,0,0,1-.556-.23l-3.972-3.972a.787.787,0,0,1,1.112-1.112l3.972,3.972a.787.787,0,0,1-.556,1.343Z" transform="translate(-135.962 -384.175)" fill="#049507"/></g><g transform="translate(37.733 36.941)"><path d="M376.45,370.886a.782.782,0,0,1-.191-.023l-6.356-1.589a.786.786,0,0,1,.381-1.526l5.084,1.271-1.271-5.084a.787.787,0,1,1,1.526-.382l1.589,6.356a.787.787,0,0,1-.763.977Z" transform="translate(-369.308 -362.957)" fill="#049507"/></g></g></g></g></svg>