<svg xmlns="http://www.w3.org/2000/svg" xmlns:xlink="http://www.w3.org/1999/xlink" width="442.815" height="187.625" viewBox="0 0 442.815 187.625"><defs><linearGradient id="a" x1="0.528" y1="0.187" x2="0.528" y2="0.769" gradientUnits="objectBoundingBox"><stop offset="0" stop-color="#1b428a"/><stop offset="1" stop-color="#ff9d00"/></linearGradient></defs><g transform="translate(-7 -30.375)"><text transform="translate(139 203)" fill="#ff9d00" font-size="53" font-family="Audiowide-Regular, Audiowide"><tspan x="-131.271" y="0">AADHYA</tspan></text><path d="M-51.827,0H-82.519a3.464,3.464,0,0,1-1.346-.259A3.29,3.29,0,0,1-84.939-.97a3.29,3.29,0,0,1-.712-1.074,3.464,3.464,0,0,1-.259-1.346V-37.11h6.729V-6.729h27.354Zm11.978,0h-6.729V-27.975h6.729ZM.933-27.975a70.031,70.031,0,0,1-2.666,6.987,50.2,50.2,0,0,1-3.507,6.56A40.569,40.569,0,0,1-9.664-8.656a28.413,28.413,0,0,1-5.409,4.581,26.259,26.259,0,0,1-6.444,3.028A24.915,24.915,0,0,1-29.06.052a3.4,3.4,0,0,1-1.32-.259,3.441,3.441,0,0,1-1.087-.712,3.225,3.225,0,0,1-.725-1.061,3.3,3.3,0,0,1-.259-1.307V-27.975h6.729v21.04A11,11,0,0,0-21-8,18.6,18.6,0,0,0-16.716-10.8a27.377,27.377,0,0,0,3.74-3.972A40.244,40.244,0,0,0-9.91-19.344a41.364,41.364,0,0,0,2.29-4.594,30.538,30.538,0,0,0,1.41-4.037ZM11.126,0H4.4V-27.975h6.729Zm38.4,0H42.8V-15.527a5.914,5.914,0,0,0-.453-2.368,5.508,5.508,0,0,0-1.229-1.8,5.338,5.338,0,0,0-1.824-1.152,6.282,6.282,0,0,0-2.264-.4H25.253V0H18.524V-24.637a3.3,3.3,0,0,1,.259-1.307A3.225,3.225,0,0,1,19.507-27a3.441,3.441,0,0,1,1.087-.712,3.4,3.4,0,0,1,1.32-.259H37.079a13.554,13.554,0,0,1,2.678.285,12.77,12.77,0,0,1,2.795.919,13.494,13.494,0,0,1,2.64,1.6,10.744,10.744,0,0,1,2.226,2.355,11.569,11.569,0,0,1,1.54,3.2,13.616,13.616,0,0,1,.569,4.089ZM86.815,2.691a10.277,10.277,0,0,1-.44,3.118A9.087,9.087,0,0,1,85.21,8.242a7.914,7.914,0,0,1-1.682,1.786,9.816,9.816,0,0,1-2.006,1.2,10.309,10.309,0,0,1-2.122.686,10.141,10.141,0,0,1-2.031.22H65.232V5.409H77.369a2.717,2.717,0,0,0,2.044-.7,2.8,2.8,0,0,0,.673-2.019V-18.555a2.75,2.75,0,0,0-.673-2.006,2.748,2.748,0,0,0-2.044-.686H65.232a2.583,2.583,0,0,0-1.967.763,2.689,2.689,0,0,0-.725,1.928v9.109a2.733,2.733,0,0,0,.7,2.019,2.771,2.771,0,0,0,2.044.7H77.369V0H65.232a9.953,9.953,0,0,1-2.019-.22A10.37,10.37,0,0,1,61.1-.906a9.816,9.816,0,0,1-2.006-1.2,7.914,7.914,0,0,1-1.682-1.786,9.087,9.087,0,0,1-1.165-2.433,10.277,10.277,0,0,1-.44-3.118v-9.109a9.953,9.953,0,0,1,.22-2.019,10.37,10.37,0,0,1,.686-2.109,9.816,9.816,0,0,1,1.2-2.006,7.914,7.914,0,0,1,1.786-1.682,9.127,9.127,0,0,1,2.42-1.165,10.151,10.151,0,0,1,3.105-.44H77.369a10.141,10.141,0,0,1,2.031.22,10.31,10.31,0,0,1,2.122.686,9.816,9.816,0,0,1,2.006,1.2A7.914,7.914,0,0,1,85.21-24.08a9.128,9.128,0,0,1,1.165,2.42,10.151,10.151,0,0,1,.44,3.105Z" transform="translate(363 203)" fill="#1b438b"/><path d="M-1750.167,2271.833l-60.083,102.976,4.5,2.19,55.583-95,9.042,16.625-34.375,59.625s23.857-15.036,53.906-10.393,48.219,29.143,48.219,29.143a2.194,2.194,0,0,0,2.969,0c1.625-1.312.906-2.5.906-2.5s-17.857-25.072-46.214-30.572-48.286,3.2-48.286,3.2l10.375-16.875s18.388-4.062,33.982-1.25a61.444,61.444,0,0,1,25.549,10.844s2.451,2.107,3.219,1.563a5,5,0,0,0,1.625-1.562,2.294,2.294,0,0,0,0-1.75l-51.875-88.719-5,2.5,46.375,78.375a64.413,64.413,0,0,0-22.536-7c-12.6-1.344-27.881,1.625-27.881,1.625l12.292-21.625,11.109,19.578,5.172.422Z" transform="translate(1987 -2219)" fill="url(#a)"/><circle cx="3.55" cy="3.55" r="3.55" transform="translate(316 165.89)" fill="#ff9d00"/><circle cx="3.55" cy="3.55" r="3.55" transform="translate(367 165.89)" fill="#ff9d00"/></g></svg>