<svg xmlns="http://www.w3.org/2000/svg" xmlns:xlink="http://www.w3.org/1999/xlink" width="50" height="50" viewBox="0 0 50 50"><defs><clipPath id="b"><rect width="50" height="50"/></clipPath></defs><g id="a" clip-path="url(#b)"><g transform="translate(-30.803 -4)"><path d="M53.087,22.7H41.614V16.147h.674a.87.87,0,0,0,.837-.913v-2.25a.87.87,0,0,0-.837-.913H35.973a6.917,6.917,0,0,0,.082-1.011,7.054,7.054,0,1,0-14.109-.005,6.917,6.917,0,0,0,.082,1.011H15.712a.87.87,0,0,0-.837.913v2.25a.87.87,0,0,0,.837.913h.674V22.7H4.913A.923.923,0,0,0,4,23.614v2.9a.915.915,0,0,0,.913.913H6.408V53.391A.608.608,0,0,0,7.016,54H50.984a.608.608,0,0,0,.609-.609V27.424h1.495A.915.915,0,0,0,54,26.511v-2.9A.915.915,0,0,0,53.087,22.7ZM41.908,13.288v1.641H34.891a7.066,7.066,0,0,0,.8-1.641ZM29,5.217a5.837,5.837,0,1,1-5.837,5.837A5.845,5.845,0,0,1,29,5.217ZM16.092,13.288H22.31a6.856,6.856,0,0,0,.8,1.641H16.092Zm8.038,2.859a7.024,7.024,0,0,0,9.739,0h6.522V52.783H37.723V39.668h.913a.608.608,0,0,0,.609-.609V36.848a.608.608,0,0,0-.609-.609H19.359a.608.608,0,0,0-.609.609V39.06a.608.608,0,0,0,.609.609h.913V52.777H17.6V16.147Zm-4.163,22.3v-.989H38.033v.989Zm8.424,1.217V52.777h-6.9V39.668Zm1.217,0h6.9V52.777h-6.9ZM5.217,23.918H16.38v2.288H5.217Zm2.408,3.505h8.761V52.783H7.625Zm42.75,25.359H41.614V27.424h8.761Zm2.408-26.576H41.614V23.918H52.777v2.288ZM27.288,12.766v1.772a1.061,1.061,0,0,0,1.06,1.06h1.31a1.061,1.061,0,0,0,1.06-1.06V12.766h1.772a1.061,1.061,0,0,0,1.06-1.06V10.4a1.061,1.061,0,0,0-1.06-1.06H30.717V7.565a1.061,1.061,0,0,0-1.06-1.06h-1.31a1.061,1.061,0,0,0-1.06,1.06V9.337H25.516a1.061,1.061,0,0,0-1.06,1.06v1.31a1.061,1.061,0,0,0,1.06,1.06Zm-1.609-2.2h1.772a1.061,1.061,0,0,0,1.06-1.06V7.734h.984V9.505a1.061,1.061,0,0,0,1.06,1.06h1.772v.984H30.554a1.061,1.061,0,0,0-1.06,1.06V14.38h-.984V12.609a1.061,1.061,0,0,0-1.06-1.06H25.679Zm-11.554,20.2H10.337a1.121,1.121,0,0,0-1.12,1.12v3.788a1.121,1.121,0,0,0,1.12,1.12h3.788a1.121,1.121,0,0,0,1.12-1.12V31.88A1.12,1.12,0,0,0,14.125,30.766Zm-.1,4.8H10.44V31.984h3.582Zm.1,4.348H10.337a1.121,1.121,0,0,0-1.12,1.12v3.788a1.121,1.121,0,0,0,1.12,1.12h3.788a1.121,1.121,0,0,0,1.12-1.12V41.033A1.121,1.121,0,0,0,14.125,39.913Zm-.1,4.8H10.44V41.13h3.582Zm29.853-7.924h3.788a1.121,1.121,0,0,0,1.12-1.12V31.88a1.121,1.121,0,0,0-1.12-1.12H43.875a1.121,1.121,0,0,0-1.12,1.12v3.788A1.125,1.125,0,0,0,43.875,36.788Zm.1-4.8H47.56v3.582H43.978Zm-.1,13.951h3.788a1.121,1.121,0,0,0,1.12-1.12V41.027a1.121,1.121,0,0,0-1.12-1.12H43.875a1.121,1.121,0,0,0-1.12,1.12v3.788A1.125,1.125,0,0,0,43.875,45.935Zm.1-4.8H47.56v3.582H43.978Zm-24.62-7.022H38.641a.608.608,0,0,0,.609-.609V28.467a.608.608,0,0,0-.609-.609H19.359a.608.608,0,0,0-.609.609V33.5A.611.611,0,0,0,19.359,34.109ZM26.4,32.886v-3.81H31.6v3.81Zm11.636,0H32.826v-3.81h5.207Zm-18.065-3.81h5.207v3.81H19.967v-3.81Zm-.609-3.951H38.641a.608.608,0,0,0,.609-.609V19.484a.608.608,0,0,0-.609-.609H19.359a.608.608,0,0,0-.609.609v5.033A.608.608,0,0,0,19.359,25.125ZM26.4,23.908V20.1H31.6v3.81H26.4Zm11.636,0H32.826V20.1h5.207ZM19.967,20.1h5.207v3.81H19.967V20.1Zm5.984,26.647V45.337a.609.609,0,1,1,1.217,0v1.408a.609.609,0,0,1-1.217,0Zm6.1-1.408v1.408a.609.609,0,1,1-1.217,0V45.337a.609.609,0,1,1,1.217,0Z" transform="translate(26.803)" fill="#049507" stroke="#049507" stroke-width="0.1"/></g></g></svg>