<svg xmlns="http://www.w3.org/2000/svg" xmlns:xlink="http://www.w3.org/1999/xlink" width="50" height="50" viewBox="0 0 50 50"><defs><clipPath id="b"><rect width="50" height="50"/></clipPath></defs><g id="a" clip-path="url(#b)"><g transform="translate(-15.516 -1)"><g transform="translate(16.516 1)"><path d="M49.712,8.344H40.65V1.781A.783.783,0,0,0,39.869,1H12.525a.783.783,0,0,0-.781.781V8.422H2.681A.783.783,0,0,0,1.9,9.2V50.219A.783.783,0,0,0,2.681,51H49.634a.783.783,0,0,0,.781-.781V9.125A.771.771,0,0,0,49.712,8.344ZM3.462,9.906h8.281V49.516H3.462Zm9.766-7.422H39.166V49.438H34.791V38.031a.783.783,0,0,0-.781-.781h-15.7a.783.783,0,0,0-.781.781V49.516h-4.3Zm5.859,36.25h6.328v6.875H25.1a.781.781,0,0,0,0,1.563h.313v2.344H19.087Zm7.891,10.781V47.172h.313a.781.781,0,0,0,0-1.563h-.313V38.734h6.328v10.7H26.978Zm21.953,0H40.65V9.906h8.281Z" transform="translate(-1.9 -1)" fill="#049507"/><path d="M28.081,8.763H29.8a.781.781,0,1,0,0-1.562H28.081a.783.783,0,0,0-.781.781A.84.84,0,0,0,28.081,8.763Z" transform="translate(-7.456 -2.356)" fill="#049507"/><path d="M35.281,8.763H37A.781.781,0,0,0,37,7.2H35.281a.781.781,0,0,0,0,1.563Z" transform="translate(-9.031 -2.356)" fill="#049507"/><path d="M42.381,8.763H44.1a.781.781,0,0,0,0-1.562H42.381a.783.783,0,0,0-.781.781A.84.84,0,0,0,42.381,8.763Z" transform="translate(-10.584 -2.356)" fill="#049507"/><path d="M28.081,15.263H29.8a.781.781,0,1,0,0-1.562H28.081a.783.783,0,0,0-.781.781A.84.84,0,0,0,28.081,15.263Z" transform="translate(-7.456 -3.778)" fill="#049507"/><path d="M35.281,15.263H37A.781.781,0,1,0,37,13.7H35.281a.781.781,0,0,0,0,1.562Z" transform="translate(-9.031 -3.778)" fill="#049507"/><path d="M42.381,15.263H44.1a.781.781,0,1,0,0-1.562H42.381a.783.783,0,0,0-.781.781A.84.84,0,0,0,42.381,15.263Z" transform="translate(-10.584 -3.778)" fill="#049507"/><path d="M28.081,21.762H29.8a.781.781,0,0,0,0-1.562H28.081a.783.783,0,0,0-.781.781A.84.84,0,0,0,28.081,21.762Z" transform="translate(-7.456 -5.2)" fill="#049507"/><path d="M35.281,21.762H37A.781.781,0,0,0,37,20.2H35.281a.781.781,0,0,0,0,1.563Z" transform="translate(-9.031 -5.2)" fill="#049507"/><path d="M42.381,21.762H44.1a.781.781,0,0,0,0-1.562H42.381a.783.783,0,0,0-.781.781A.84.84,0,0,0,42.381,21.762Z" transform="translate(-10.584 -5.2)" fill="#049507"/><path d="M28.081,28.263H29.8a.781.781,0,1,0,0-1.562H28.081a.783.783,0,0,0-.781.781A.84.84,0,0,0,28.081,28.263Z" transform="translate(-7.456 -6.622)" fill="#049507"/><path d="M35.281,28.263H37A.781.781,0,1,0,37,26.7H35.281a.781.781,0,0,0,0,1.562Z" transform="translate(-9.031 -6.622)" fill="#049507"/><path d="M42.381,28.263H44.1a.781.781,0,1,0,0-1.562H42.381a.783.783,0,0,0-.781.781A.84.84,0,0,0,42.381,28.263Z" transform="translate(-10.584 -6.622)" fill="#049507"/><path d="M28.081,34.763H29.8a.781.781,0,0,0,0-1.563H28.081a.783.783,0,0,0-.781.781A.84.84,0,0,0,28.081,34.763Z" transform="translate(-7.456 -8.044)" fill="#049507"/><path d="M35.281,34.763H37A.781.781,0,0,0,37,33.2H35.281a.781.781,0,0,0,0,1.563Z" transform="translate(-9.031 -8.044)" fill="#049507"/><path d="M42.381,34.763H44.1a.781.781,0,0,0,0-1.563H42.381a.783.783,0,0,0-.781.781A.84.84,0,0,0,42.381,34.763Z" transform="translate(-10.584 -8.044)" fill="#049507"/><path d="M20.981,8.763H22.7a.781.781,0,0,0,0-1.562H20.981a.781.781,0,0,0,0,1.563Z" transform="translate(-5.903 -2.356)" fill="#049507"/><path d="M20.981,15.263H22.7a.781.781,0,0,0,0-1.562H20.981a.781.781,0,1,0,0,1.562Z" transform="translate(-5.903 -3.778)" fill="#049507"/><path d="M20.981,21.762H22.7a.781.781,0,0,0,0-1.562H20.981a.781.781,0,0,0,0,1.563Z" transform="translate(-5.903 -5.2)" fill="#049507"/><path d="M20.981,28.263H22.7a.781.781,0,0,0,0-1.562H20.981a.781.781,0,1,0,0,1.562Z" transform="translate(-5.903 -6.622)" fill="#049507"/><path d="M20.981,34.763H22.7a.781.781,0,0,0,0-1.563H20.981a.781.781,0,0,0,0,1.563Z" transform="translate(-5.903 -8.044)" fill="#049507"/><path d="M22.7,41.262a.781.781,0,0,0,0-1.562H20.981a.781.781,0,1,0,0,1.563Z" transform="translate(-5.903 -9.466)" fill="#049507"/><path d="M9.938,16.2H7.281a.781.781,0,1,0,0,1.563H9.859a.783.783,0,0,0,.781-.781A.721.721,0,0,0,9.938,16.2Z" transform="translate(-2.906 -4.325)" fill="#049507"/><path d="M9.938,24.4H7.281a.781.781,0,1,0,0,1.563H9.859a.783.783,0,0,0,.781-.781A.721.721,0,0,0,9.938,24.4Z" transform="translate(-2.906 -6.119)" fill="#049507"/><path d="M9.938,32.6H7.281a.781.781,0,1,0,0,1.563H9.859a.783.783,0,0,0,.781-.781A.771.771,0,0,0,9.938,32.6Z" transform="translate(-2.906 -7.912)" fill="#049507"/><path d="M9.938,40.9H7.281a.781.781,0,0,0,0,1.563H9.859a.783.783,0,0,0,.781-.781A.721.721,0,0,0,9.938,40.9Z" transform="translate(-2.906 -9.728)" fill="#049507"/><path d="M9.938,49.1H7.281a.781.781,0,0,0,0,1.563H9.859a.783.783,0,0,0,.781-.781A.721.721,0,0,0,9.938,49.1Z" transform="translate(-2.906 -11.522)" fill="#049507"/><path d="M9.938,57.3H7.281a.781.781,0,0,0,0,1.563H9.859a.783.783,0,0,0,.781-.781A.771.771,0,0,0,9.938,57.3Z" transform="translate(-2.906 -13.316)" fill="#049507"/><path d="M54.881,17.663h2.578a.781.781,0,0,0,0-1.562H54.881a.783.783,0,0,0-.781.781A.837.837,0,0,0,54.881,17.663Z" transform="translate(-13.319 -4.303)" fill="#049507"/><path d="M54.881,25.863h2.578a.781.781,0,1,0,0-1.562H54.881a.783.783,0,0,0-.781.781A.837.837,0,0,0,54.881,25.863Z" transform="translate(-13.319 -6.097)" fill="#049507"/><path d="M54.881,34.162h2.578a.781.781,0,1,0,0-1.562H54.881a.783.783,0,0,0-.781.781A.911.911,0,0,0,54.881,34.162Z" transform="translate(-13.319 -7.912)" fill="#049507"/><path d="M54.881,42.362h2.578a.781.781,0,1,0,0-1.562H54.881a.783.783,0,0,0-.781.781A.837.837,0,0,0,54.881,42.362Z" transform="translate(-13.319 -9.706)" fill="#049507"/><path d="M54.881,50.562h2.578a.781.781,0,1,0,0-1.562H54.881a.783.783,0,0,0-.781.781A.837.837,0,0,0,54.881,50.562Z" transform="translate(-13.319 -11.5)" fill="#049507"/><path d="M54.881,58.862h2.578a.781.781,0,0,0,0-1.563H54.881a.783.783,0,0,0-.781.781A.911.911,0,0,0,54.881,58.862Z" transform="translate(-13.319 -13.316)" fill="#049507"/><path d="M28.081,41.262H29.8a.781.781,0,0,0,0-1.562H28.081a.781.781,0,0,0,0,1.563Z" transform="translate(-7.456 -9.466)" fill="#049507"/><path d="M35.281,41.262H37A.781.781,0,0,0,37,39.7H35.281a.783.783,0,0,0-.781.781A.738.738,0,0,0,35.281,41.262Z" transform="translate(-9.031 -9.466)" fill="#049507"/><path d="M42.381,41.262H44.1a.781.781,0,0,0,0-1.562H42.381a.781.781,0,0,0,0,1.563Z" transform="translate(-10.584 -9.466)" fill="#049507"/></g></g></g></svg>