<svg xmlns="http://www.w3.org/2000/svg" xmlns:xlink="http://www.w3.org/1999/xlink" width="50" height="50" viewBox="0 0 50 50"><defs><clipPath id="b"><rect width="50" height="50"/></clipPath></defs><g id="a" clip-path="url(#b)"><g transform="translate(-2.65 -111)"><g transform="translate(9.65 111)"><g transform="translate(0 6.85)"><path d="M262.6,232.225v16.2c0,1.008.012,2.022,0,3.03a4.709,4.709,0,0,1-2.041,3.814,4.916,4.916,0,0,1-2.825.852H234.68a4.813,4.813,0,0,1-2.955-.971,4.755,4.755,0,0,1-1.842-3.739V232.971c0-.336-.006-.672.006-1.008a9.8,9.8,0,0,1,1.207-4.474,9.975,9.975,0,0,1,7.373-5.065,14.614,14.614,0,0,1,1.954-.081h11.741a12.577,12.577,0,0,1,2.165.131,10.074,10.074,0,0,1,7.242,5.345,9.879,9.879,0,0,1,1.033,4.405.623.623,0,0,0,1.244,0,11.182,11.182,0,0,0-8.823-10.876,13.034,13.034,0,0,0-2.738-.249H240.423a15.118,15.118,0,0,0-2.053.093,11.081,11.081,0,0,0-4.716,1.736,11.251,11.251,0,0,0-4.984,8.35c-.106,1.182-.044,2.4-.044,3.578v13.421c0,1.052-.006,2.1,0,3.148a5.988,5.988,0,0,0,2.016,4.461,6.064,6.064,0,0,0,3.976,1.493c1.027.006,2.053,0,3.08,0h20.053a6.133,6.133,0,0,0,3.4-1,6.046,6.046,0,0,0,2.644-4.268,10.635,10.635,0,0,0,.044-1.338V232.231A.619.619,0,0,0,262.6,232.225Z" transform="translate(-228.608 -221.1)" fill="#049507" stroke="#049507" stroke-width="0.5"/></g><g transform="translate(5.27 31.771)"><path d="M317.929,624.57a1.691,1.691,0,1,1-1.387-1.667,1.723,1.723,0,0,1,1.387,1.667.623.623,0,0,0,1.244,0,2.986,2.986,0,0,0-1.947-2.763,2.93,2.93,0,1,0,1.947,2.756A.623.623,0,0,0,317.929,624.57Z" transform="translate(-313.306 -621.635)" fill="#049507" stroke="#049507" stroke-width="0.5"/></g><g transform="translate(24.135 31.771)"><path d="M621.129,624.57a1.691,1.691,0,1,1-1.388-1.667,1.7,1.7,0,0,1,1.388,1.667.623.623,0,0,0,1.244,0,2.986,2.986,0,0,0-1.947-2.763,2.93,2.93,0,1,0,1.947,2.756A.623.623,0,0,0,621.129,624.57Z" transform="translate(-616.506 -621.635)" fill="#049507" stroke="#049507" stroke-width="0.5"/></g><g transform="translate(5.357 13.275)"><path d="M335.668,337.455H323.274c-1.643,0-3.279.006-4.922,0a2.4,2.4,0,0,1-2.414-2.377c-.012-.877,0-1.755,0-2.626v-3.8c0-.255-.006-.516,0-.771a2.374,2.374,0,0,1,1.207-1.972,3.554,3.554,0,0,1,1.867-.3h16.407a4.549,4.549,0,0,1,.585.019,2.421,2.421,0,0,1,1.848,1.443,3,3,0,0,1,.174,1.195v5.4a4.928,4.928,0,0,1-.367,2.688,2.381,2.381,0,0,1-1.991,1.1.623.623,0,0,0,0,1.244,3.668,3.668,0,0,0,3.609-3.646c.006-.989,0-1.979,0-2.968v-3.708a5.259,5.259,0,0,0-.118-1.325,3.638,3.638,0,0,0-1.885-2.315,5.125,5.125,0,0,0-2.339-.38H323.79c-1.8,0-3.6-.006-5.4,0a3.667,3.667,0,0,0-3.571,2.694,5.259,5.259,0,0,0-.118,1.325v6.682a3.693,3.693,0,0,0,.871,2.377,3.824,3.824,0,0,0,3.08,1.269h17.023A.626.626,0,0,0,335.668,337.455Z" transform="translate(-314.7 -324.356)" fill="#049507" stroke="#049507" stroke-width="0.5"/></g><g transform="translate(0.532 41.907)"><path d="M270.74,791.369H239.145c-.429,0-.871-.031-1.294,0h-.056c.18.311.361.622.535.933q2.128-2.986,4.25-5.967l.6-.846c-.18.106-.361.205-.535.311h22.281c.3,0,.616.025.915,0h.037c-.18-.106-.361-.205-.535-.311q2.128,2.987,4.25,5.967l.6.846a.623.623,0,1,0,1.076-.628c-1.6-2.246-3.186-4.511-4.8-6.745a.867.867,0,0,0-.8-.38H244.676c-.666,0-1.35-.037-2.016,0-.46.025-.716.541-.958.883-.473.66-.94,1.325-1.412,1.985q-1.428,2.006-2.862,4.013c-.056.081-.118.162-.174.243a.626.626,0,0,0,.535.933h28.9c1.325,0,2.663.043,3.988,0h.056A.619.619,0,0,0,270.74,791.369Z" transform="translate(-237.158 -784.533)" fill="#049507" stroke="#049507" stroke-width="0.5"/></g><g transform="translate(17.023 0.008)"><path d="M502.2,111.727v6.819a.623.623,0,0,0,1.244,0v-6.819a.623.623,0,0,0-1.244,0Z" transform="translate(-502.2 -111.125)" fill="#049507" stroke="#049507" stroke-width="0.5"/></g><g transform="translate(6.702)"><path d="M336.927,112.244h20.719a.623.623,0,0,0,0-1.244H336.927a.623.623,0,0,0,0,1.244Z" transform="translate(-336.325 -111)" fill="#049507" stroke="#049507" stroke-width="0.5"/></g></g></g></g></svg>